<?xml version="1.0" standalone="no"?>
<svg version="1.0" xmlns="http://www.w3.org/2000/svg"
 width="273" height="273" viewBox="0 0 1092.000000 1092.000000"
 preserveAspectRatio="xMidYMid meet">
<g transform="translate(0.000000,1092.000000) scale(0.100000,-0.100000)"
fill="#000000" stroke="none">
<path fill="#F43F5E" d="M1920 10260 c0 -17 -7 -20 -40 -20 -33 0 -40 -3 -40 -20 0 -13 -7 -20
-20 -20 -13 0 -20 -7 -20 -20 0 -13 -7 -20 -20 -20 -13 0 -20 -7 -20 -20 0
-13 -7 -20 -20 -20 -13 0 -20 -7 -20 -20 0 -13 -7 -20 -20 -20 -18 0 -20 -7
-20 -60 0 -53 -2 -60 -20 -60 -19 0 -20 -7 -20 -120 0 -113 1 -120 20 -120 17
0 20 -7 20 -40 0 -33 3 -40 20 -40 13 0 20 -7 20 -20 0 -13 7 -20 20 -20 17 0
20 -7 20 -40 0 -33 3 -40 20 -40 13 0 20 -7 20 -20 0 -17 7 -20 40 -20 33 0
40 -3 40 -20 0 -17 7 -20 40 -20 33 0 40 -3 40 -20 0 -20 7 -20 700 -20 693 0
700 0 700 20 0 17 7 20 40 20 33 0 40 3 40 20 0 17 7 20 40 20 33 0 40 3 40
20 0 13 7 20 20 20 13 0 20 7 20 20 0 13 7 20 20 20 13 0 20 7 20 20 0 13 7
20 20 20 13 0 20 7 20 20 0 20 7 20 720 20 713 0 720 0 720 20 0 13 7 20 20
20 13 0 20 7 20 20 0 13 7 20 20 20 19 0 20 7 20 120 0 113 -1 120 -20 120
-17 0 -20 7 -20 40 l0 40 -40 0 c-33 0 -40 3 -40 20 0 20 -7 20 -720 20 -713
0 -720 0 -720 20 0 13 -7 20 -20 20 -13 0 -20 7 -20 20 0 13 -7 20 -20 20 -13
0 -20 7 -20 20 0 13 -7 20 -20 20 -13 0 -20 7 -20 20 0 17 -7 20 -40 20 -33 0
-40 3 -40 20 0 20 -7 20 -740 20 -733 0 -740 0 -740 -20z M1840 9180 c0 -18
-7 -20 -60 -20 -53 0 -60 -2 -60 -20 0 -17 -7 -20 -40 -20 -33 0 -40 -3 -40
-20 0 -13 -7 -20 -20 -20 -13 0 -20 -7 -20 -20 0 -13 -7 -20 -20 -20 -17 0
-20 -7 -20 -40 0 -33 -3 -40 -20 -40 -18 0 -20 -7 -20 -80 0 -73 -2 -80 -20
-80 -17 0 -20 -7 -20 -40 0 -33 3 -40 20 -40 18 0 20 -7 20 -60 0 -53 2 -60
20 -60 17 0 20 -7 20 -40 0 -33 3 -40 20 -40 13 0 20 -7 20 -20 0 -13 7 -20
20 -20 13 0 20 -7 20 -20 0 -13 7 -20 20 -20 13 0 20 -7 20 -20 0 -17 7 -20
40 -20 33 0 40 -3 40 -20 0 -20 7 -20 600 -20 593 0 600 0 600 20 0 13 7 20
20 20 13 0 20 7 20 20 0 13 7 20 20 20 13 0 20 7 20 20 0 13 7 20 20 20 13 0
20 7 20 20 0 13 7 20 20 20 13 0 20 7 20 20 0 20 7 20 940 20 933 0 940 0 940
20 0 17 7 20 40 20 33 0 40 3 40 20 0 13 7 20 20 20 13 0 20 7 20 20 0 13 7
20 20 20 18 0 20 7 20 60 0 53 2 60 20 60 13 0 20 7 20 20 0 13 -7 20 -20 20
-17 0 -20 7 -20 40 0 33 -3 40 -20 40 -13 0 -20 7 -20 20 0 13 -7 20 -20 20
-13 0 -20 7 -20 20 0 17 -7 20 -40 20 -33 0 -40 3 -40 20 0 19 -7 20 -120 20
-113 0 -120 -1 -120 -20 0 -20 -7 -20 -580 -20 -573 0 -580 0 -580 20 0 17 -7
20 -40 20 -33 0 -40 -3 -40 -20 0 -19 -7 -20 -180 -20 -173 0 -180 1 -180 20
0 13 -7 20 -20 20 -13 0 -20 7 -20 20 0 17 -7 20 -40 20 -33 0 -40 3 -40 20 0
13 -7 20 -20 20 -13 0 -20 7 -20 20 0 17 -7 20 -40 20 -33 0 -40 3 -40 20 0
20 -7 20 -540 20 -533 0 -540 0 -540 -20z M2040 8100 c0 -13 -7 -20 -20 -20 -13 0 -20 -7 -20 -20 0 -13 -7 -20 -20 -20
-13 0 -20 -7 -20 -20 0 -13 -7 -20 -20 -20 -13 0 -20 -7 -20 -20 0 -13 -7 -20
-20 -20 -13 0 -20 -7 -20 -20 0 -13 -7 -20 -20 -20 -18 0 -20 -7 -20 -60 0
-53 -2 -60 -20 -60 -18 0 -20 -7 -20 -60 0 -53 2 -60 20 -60 18 0 20 -7 20
-60 0 -53 2 -60 20 -60 13 0 20 -7 20 -20 0 -13 7 -20 20 -20 17 0 20 -7 20
-40 l0 -40 40 0 c33 0 40 -3 40 -20 0 -13 7 -20 20 -20 13 0 20 -7 20 -20 0
-18 7 -20 60 -20 53 0 60 -2 60 -20 0 -20 7 -20 480 -20 473 0 480 0 480 20 0
18 7 20 60 20 53 0 60 2 60 20 0 13 7 20 20 20 13 0 20 7 20 20 0 13 7 20 20
20 13 0 20 7 20 20 0 13 7 20 20 20 13 0 20 7 20 20 0 18 7 20 60 20 53 0 60
2 60 20 0 13 7 20 20 20 13 0 20 -7 20 -20 0 -20 7 -20 740 -20 733 0 740 0
740 20 0 17 7 20 40 20 33 0 40 3 40 20 0 13 7 20 20 20 13 0 20 7 20 20 0 13
7 20 20 20 19 0 20 7 20 120 0 113 -1 120 -20 120 -13 0 -20 7 -20 20 0 13 -7
20 -20 20 -13 0 -20 7 -20 20 0 17 -7 20 -40 20 -33 0 -40 3 -40 20 0 18 -7
20 -80 20 -73 0 -80 -2 -80 -20 0 -13 -7 -20 -20 -20 -13 0 -20 7 -20 20 0 20
-7 20 -600 20 -593 0 -600 0 -600 -20 0 -19 -7 -20 -120 -20 -113 0 -120 1
-120 20 0 13 -7 20 -20 20 -13 0 -20 7 -20 20 0 13 -7 20 -20 20 -13 0 -20 7
-20 20 0 17 -7 20 -40 20 -33 0 -40 3 -40 20 0 20 -7 20 -580 20 -573 0 -580
0 -580 -20z M2960 7100 c0 -19 -7 -20 -240 -20
-233 0 -240 -1 -240 -20 0 -13 -7 -20 -20 -20 -13 0 -20 -7 -20 -20 0 -13 -7
-20 -20 -20 -13 0 -20 -7 -20 -20 0 -13 -7 -20 -20 -20 -13 0 -20 -7 -20 -20
0 -13 -7 -20 -20 -20 -18 0 -20 -7 -20 -60 0 -53 -2 -60 -20 -60 -18 0 -20 -7
-20 -80 0 -73 2 -80 20 -80 18 0 20 -7 20 -60 0 -53 2 -60 20 -60 13 0 20 -7
20 -20 0 -13 7 -20 20 -20 13 0 20 -7 20 -20 0 -13 7 -20 20 -20 13 0 20 -7
20 -20 0 -13 7 -20 20 -20 13 0 20 -7 20 -20 0 -18 7 -20 60 -20 53 0 60 -2
60 -20 0 -20 7 -20 520 -20 513 0 520 0 520 20 0 17 7 20 40 20 33 0 40 3 40
20 0 17 7 20 40 20 33 0 40 3 40 20 0 13 7 20 20 20 13 0 20 7 20 20 0 13 7
20 20 20 17 0 20 7 20 40 0 33 3 40 20 40 18 0 20 7 20 60 0 53 2 60 20 60 17
0 20 7 20 40 0 33 -3 40 -20 40 -18 0 -20 7 -20 60 0 53 -2 60 -20 60 -17 0
-20 7 -20 40 0 33 -3 40 -20 40 -13 0 -20 7 -20 20 0 13 -7 20 -20 20 -13 0
-20 7 -20 20 0 13 -7 20 -20 20 -13 0 -20 7 -20 20 0 18 -7 20 -60 20 -53 0
-60 2 -60 20 0 20 -7 20 -340 20 -333 0 -340 0 -340 -20z M4560 7020 c0 -13 -7 -20 -20
-20 -13 0 -20 -7 -20 -20 0 -13 -7 -20 -20 -20 -13 0 -20 -7 -20 -20 0 -13 -7
-20 -20 -20 -13 0 -20 -7 -20 -20 0 -13 -7 -20 -20 -20 -19 0 -20 -7 -20 -120
0 -113 1 -120 20 -120 13 0 20 -7 20 -20 0 -13 7 -20 20 -20 13 0 20 -7 20
-20 0 -13 7 -20 20 -20 13 0 20 -7 20 -20 0 -13 7 -20 20 -20 13 0 20 -7 20
-20 0 -20 7 -20 840 -20 833 0 840 0 840 20 0 13 7 20 20 20 13 0 20 7 20 20
0 13 7 20 20 20 13 0 20 7 20 20 0 13 7 20 20 20 13 0 20 7 20 20 0 13 7 20
20 20 17 0 20 7 20 40 0 33 3 40 20 40 17 0 20 7 20 40 0 33 -3 40 -20 40 -17
0 -20 7 -20 40 0 33 -3 40 -20 40 -17 0 -20 7 -20 40 0 33 -3 40 -20 40 -13 0
-20 7 -20 20 0 17 -7 20 -40 20 -33 0 -40 3 -40 20 0 20 -7 20 -840 20 -833 0
-840 0 -840 -20z M3640 6060 c0 -18 -7 -20 -60 -20 -53 0 -60 -2 -60 -20 0
-13 -7 -20 -20 -20 -13 0 -20 -7 -20 -20 0 -13 -7 -20 -20 -20 -13 0 -20 -7
-20 -20 0 -13 -7 -20 -20 -20 -13 0 -20 -7 -20 -20 0 -13 -7 -20 -20 -20 -18
0 -20 -7 -20 -80 0 -73 -2 -80 -20 -80 -13 0 -20 -7 -20 -20 0 -13 7 -20 20
-20 18 0 20 -7 20 -80 0 -73 2 -80 20 -80 13 0 20 -7 20 -20 0 -13 7 -20 20
-20 13 0 20 -7 20 -20 0 -13 7 -20 20 -20 13 0 20 -7 20 -20 0 -13 7 -20 20
-20 13 0 20 -7 20 -20 0 -20 7 -20 740 -20 733 0 740 0 740 20 0 13 7 20 20
20 13 0 20 7 20 20 0 13 7 20 20 20 13 0 20 7 20 20 0 13 7 20 20 20 13 0 20
7 20 20 0 13 7 20 20 20 17 0 20 7 20 40 0 33 3 40 20 40 19 0 20 7 20 100 0
93 -1 100 -20 100 -17 0 -20 7 -20 40 0 33 -3 40 -20 40 -13 0 -20 7 -20 20 0
13 -7 20 -20 20 -13 0 -20 7 -20 20 0 13 -7 20 -20 20 -13 0 -20 7 -20 20 0
13 -7 20 -20 20 -13 0 -20 7 -20 20 0 17 -7 20 -40 20 -33 0 -40 3 -40 20 0
20 -7 20 -400 20 -393 0 -400 0 -400 -20 0 -17 -7 -20 -40 -20 -33 0 -40 3
-40 20 0 19 -7 20 -200 20 -193 0 -200 -1 -200 -20z M4080 4220 c0 -18 -7 -20
-60 -20 -53 0 -60 -2 -60 -20 0 -13 -7 -20 -20 -20 -13 0 -20 -7 -20 -20 0
-13 -7 -20 -20 -20 -13 0 -20 -7 -20 -20 0 -13 -7 -20 -20 -20 -18 0 -20 -7
-20 -80 0 -73 -2 -80 -20 -80 -13 0 -20 -7 -20 -20 0 -13 7 -20 20 -20 18 0
20 -7 20 -60 0 -53 2 -60 20 -60 13 0 20 -7 20 -20 0 -13 7 -20 20 -20 13 0
20 -7 20 -20 0 -13 7 -20 20 -20 13 0 20 -7 20 -20 0 -20 7 -20 400 -20 393 0
400 0 400 -20 0 -18 7 -20 80 -20 73 0 80 2 80 20 0 18 7 20 60 20 53 0 60 2
60 20 0 13 7 20 20 20 13 0 20 7 20 20 0 13 7 20 20 20 17 0 20 7 20 40 0 33
3 40 20 40 17 0 20 7 20 40 0 33 3 40 20 40 17 0 20 7 20 40 0 33 -3 40 -20
40 -18 0 -20 7 -20 60 0 53 -2 60 -20 60 -13 0 -20 7 -20 20 0 13 -7 20 -20
20 -13 0 -20 7 -20 20 0 13 -7 20 -20 20 -13 0 -20 7 -20 20 0 17 -7 20 -40
20 -33 0 -40 3 -40 20 0 20 -7 20 -440 20 -433 0 -440 0 -440 -20z M3360 3340 c0 -17 -7 -20 -40 -20
-33 0 -40 -3 -40 -20 0 -17 -7 -20 -40 -20 -33 0 -40 -3 -40 -20 0 -13 -7 -20
-20 -20 -17 0 -20 -7 -20 -40 0 -33 -3 -40 -20 -40 -17 0 -20 -7 -20 -40 0
-33 -3 -40 -20 -40 -19 0 -20 -7 -20 -100 0 -93 1 -100 20 -100 18 0 20 -7 20
-60 0 -53 2 -60 20 -60 13 0 20 -7 20 -20 0 -13 7 -20 20 -20 13 0 20 -7 20
-20 0 -13 7 -20 20 -20 13 0 20 -7 20 -20 0 -17 7 -20 40 -20 33 0 40 -3 40
-20 0 -20 7 -20 440 -20 433 0 440 0 440 20 0 17 7 20 40 20 33 0 40 3 40 20
0 17 7 20 40 20 33 0 40 3 40 20 0 13 7 20 20 20 13 0 20 7 20 20 0 20 7 20
340 20 333 0 340 0 340 20 0 13 7 20 20 20 17 0 20 7 20 40 0 33 3 40 20 40
19 0 20 7 20 100 0 93 -1 100 -20 100 -13 0 -20 7 -20 20 0 13 -7 20 -20 20
-13 0 -20 7 -20 20 0 17 -7 20 -40 20 -33 0 -40 3 -40 20 0 20 -7 20 -320 20
-313 0 -320 0 -320 20 0 13 -7 20 -20 20 -13 0 -20 7 -20 20 0 13 -7 20 -20
20 -13 0 -20 7 -20 20 0 17 -7 20 -40 20 -33 0 -40 3 -40 20 0 20 -7 20 -420
20 -413 0 -420 0 -420 -20z M3160 2340 c0 -17
-7 -20 -40 -20 -33 0 -40 -3 -40 -20 0 -17 -7 -20 -40 -20 -33 0 -40 -3 -40
-20 0 -13 -7 -20 -20 -20 -17 0 -20 -7 -20 -40 0 -33 -3 -40 -20 -40 -17 0
-20 -7 -20 -40 0 -33 -3 -40 -20 -40 -19 0 -20 -7 -20 -100 0 -93 1 -100 20
-100 17 0 20 -7 20 -40 0 -33 3 -40 20 -40 17 0 20 -7 20 -40 0 -33 3 -40 20
-40 13 0 20 -7 20 -20 0 -13 7 -20 20 -20 13 0 20 -7 20 -20 0 -17 7 -20 40
-20 33 0 40 -3 40 -20 0 -18 7 -20 60 -20 53 0 60 -2 60 -20 0 -20 7 -20 460
-20 453 0 460 0 460 20 0 17 7 20 40 20 33 0 40 3 40 20 0 13 7 20 20 20 13 0
20 7 20 20 0 13 7 20 20 20 13 0 20 7 20 20 0 17 7 20 40 20 33 0 40 3 40 20
0 19 7 20 240 20 233 0 240 -1 240 -20 0 -13 7 -20 20 -20 13 0 20 7 20 20 0
18 7 20 60 20 53 0 60 2 60 20 0 17 7 20 40 20 l40 0 0 40 c0 33 3 40 20 40
19 0 20 7 20 100 0 93 -1 100 -20 100 -13 0 -20 7 -20 20 0 13 -7 20 -20 20
-13 0 -20 7 -20 20 0 17 -7 20 -40 20 -33 0 -40 3 -40 20 0 20 -7 20 -320 20
-313 0 -320 0 -320 20 0 13 -7 20 -20 20 -13 0 -20 7 -20 20 0 17 -7 20 -40
20 -33 0 -40 3 -40 20 0 13 -7 20 -20 20 -13 0 -20 7 -20 20 0 20 -7 20 -520
20 -513 0 -520 0 -520 -20z M3880 1340 c0 -20 -7 -20 -280 -20 -273 0
-280 0 -280 -20 0 -17 -7 -20 -40 -20 -33 0 -40 -3 -40 -20 0 -13 -7 -20 -20
-20 -17 0 -20 -7 -20 -40 0 -33 -3 -40 -20 -40 -17 0 -20 -7 -20 -40 0 -33 -3
-40 -20 -40 -19 0 -20 -7 -20 -120 0 -113 1 -120 20 -120 17 0 20 -7 20 -40 0
-33 3 -40 20 -40 13 0 20 -7 20 -20 0 -13 7 -20 20 -20 13 0 20 -7 20 -20 0
-13 7 -20 20 -20 13 0 20 -7 20 -20 0 -17 7 -20 40 -20 33 0 40 -3 40 -20 0
-20 7 -20 440 -20 433 0 440 0 440 20 0 13 7 20 20 20 13 0 20 7 20 20 0 13 7
20 20 20 13 0 20 7 20 20 0 17 7 20 40 20 33 0 40 3 40 20 0 19 7 20 200 20
193 0 200 -1 200 -20 0 -19 7 -20 100 -20 93 0 100 1 100 20 0 17 7 20 40 20
33 0 40 3 40 20 0 13 7 20 20 20 13 0 20 7 20 20 0 13 7 20 20 20 19 0 20 7
20 120 0 113 -1 120 -20 120 -13 0 -20 7 -20 20 0 13 -7 20 -20 20 -13 0 -20
7 -20 20 0 17 -7 20 -40 20 -33 0 -40 3 -40 20 0 20 -7 20 -320 20 -313 0
-320 0 -320 20 0 13 -7 20 -20 20 -13 0 -20 7 -20 20 0 17 -7 20 -40 20 -33 0
-40 3 -40 20 0 19 -7 20 -100 20 -93 0 -100 1 -100 20 0 18 -7 20 -80 20 -73
0 -80 -2 -80 -20z"/>
<path fill="#000000" d="M7960 10300 c0 -19 -7 -20 -260 -20 -253 0 -260 -1 -260 -20 0 -17
-7 -20 -40 -20 -33 0 -40 -3 -40 -20 0 -13 -7 -20 -20 -20 -13 0 -20 -7 -20
-20 0 -13 -7 -20 -20 -20 -13 0 -20 -7 -20 -20 0 -13 -7 -20 -20 -20 -13 0
-20 -7 -20 -20 0 -20 -7 -20 -720 -20 -713 0 -720 0 -720 -20 0 -17 -7 -20
-40 -20 l-40 0 0 -40 c0 -33 -3 -40 -20 -40 -19 0 -20 -7 -20 -120 0 -113 1
-120 20 -120 13 0 20 -7 20 -20 0 -13 7 -20 20 -20 13 0 20 -7 20 -20 0 -20 7
-20 740 -20 733 0 740 0 740 -20 0 -13 7 -20 20 -20 13 0 20 -7 20 -20 0 -13
7 -20 20 -20 13 0 20 -7 20 -20 0 -13 7 -20 20 -20 13 0 20 -7 20 -20 0 -13 7
-20 20 -20 13 0 20 -7 20 -20 0 -18 7 -20 60 -20 53 0 60 -2 60 -20 0 -20 7
-20 720 -20 713 0 720 0 720 20 0 17 7 20 40 20 33 0 40 3 40 20 0 17 7 20 40
20 33 0 40 3 40 20 0 13 7 20 20 20 13 0 20 7 20 20 0 13 7 20 20 20 17 0 20
7 20 40 0 33 3 40 20 40 17 0 20 7 20 40 0 33 3 40 20 40 19 0 20 7 20 120 0
113 -1 120 -20 120 -18 0 -20 7 -20 60 0 53 -2 60 -20 60 -13 0 -20 7 -20 20
0 13 -7 20 -20 20 -13 0 -20 7 -20 20 0 13 -7 20 -20 20 -13 0 -20 7 -20 20 0
13 -7 20 -20 20 -13 0 -20 7 -20 20 0 17 -7 20 -40 20 -33 0 -40 3 -40 20 0
17 -7 20 -40 20 -33 0 -40 3 -40 20 0 20 -7 20 -480 20 -473 0 -480 0 -480
-20z M7920 9180 c0 -17 -7 -20 -40 -20
-33 0 -40 -3 -40 -20 0 -17 -7 -20 -40 -20 -33 0 -40 -3 -40 -20 0 -13 -7 -20
-20 -20 -13 0 -20 -7 -20 -20 0 -13 -7 -20 -20 -20 -13 0 -20 -7 -20 -20 0
-20 -7 -20 -960 -20 -953 0 -960 0 -960 -20 0 -13 -7 -20 -20 -20 -13 0 -20
-7 -20 -20 0 -13 -7 -20 -20 -20 -17 0 -20 -7 -20 -40 0 -33 -3 -40 -20 -40
-17 0 -20 -7 -20 -40 0 -33 3 -40 20 -40 17 0 20 -7 20 -40 0 -33 3 -40 20
-40 13 0 20 -7 20 -20 0 -13 7 -20 20 -20 13 0 20 -7 20 -20 0 -17 7 -20 40
-20 33 0 40 -3 40 -20 0 -20 7 -20 880 -20 873 0 880 0 880 20 0 13 7 20 20
20 13 0 20 -7 20 -20 0 -13 7 -20 20 -20 13 0 20 -7 20 -20 0 -13 7 -20 20
-20 13 0 20 -7 20 -20 0 -13 7 -20 20 -20 13 0 20 -7 20 -20 0 -13 7 -20 20
-20 13 0 20 -7 20 -20 0 -17 7 -20 40 -20 33 0 40 -3 40 -20 0 -20 7 -20 620
-20 613 0 620 0 620 20 0 17 7 20 40 20 33 0 40 3 40 20 0 17 7 20 40 20 l40
0 0 40 c0 33 3 40 20 40 13 0 20 7 20 20 0 13 7 20 20 20 17 0 20 7 20 40 0
33 3 40 20 40 19 0 20 7 20 140 0 133 -1 140 -20 140 -17 0 -20 7 -20 40 0 33
-3 40 -20 40 -13 0 -20 7 -20 20 0 13 -7 20 -20 20 -13 0 -20 7 -20 20 0 13
-7 20 -20 20 -13 0 -20 7 -20 20 0 17 -7 20 -40 20 -33 0 -40 3 -40 20 0 17
-7 20 -40 20 -33 0 -40 3 -40 20 0 20 -7 20 -580 20 -573 0 -580 0 -580 -20z M7600 8100 c0 -17 -7 -20 -40 -20 -33 0 -40 -3 -40 -20 0 -13 -7
-20 -20 -20 -13 0 -20 -7 -20 -20 0 -13 -7 -20 -20 -20 -13 0 -20 -7 -20 -20
0 -20 -7 -20 -540 -20 -533 0 -540 0 -540 20 0 19 -7 20 -160 20 -153 0 -160
-1 -160 -20 0 -13 -7 -20 -20 -20 -13 0 -20 7 -20 20 0 17 -7 20 -40 20 -33 0
-40 -3 -40 -20 0 -18 -7 -20 -80 -20 -73 0 -80 -2 -80 -20 0 -13 -7 -20 -20
-20 -13 0 -20 -7 -20 -20 0 -13 -7 -20 -20 -20 -19 0 -20 -7 -20 -120 0 -113
1 -120 20 -120 13 0 20 -7 20 -20 0 -13 7 -20 20 -20 13 0 20 -7 20 -20 0 -17
7 -20 40 -20 33 0 40 -3 40 -20 0 -20 7 -20 440 -20 433 0 440 0 440 20 0 20
7 20 340 20 333 0 340 0 340 -20 0 -13 7 -20 20 -20 13 0 20 -7 20 -20 0 -13
7 -20 20 -20 17 0 20 -7 20 -40 l0 -40 40 0 c33 0 40 -3 40 -20 0 -17 7 -20
40 -20 33 0 40 -3 40 -20 0 -20 7 -20 520 -20 513 0 520 0 520 20 0 18 7 20
60 20 53 0 60 2 60 20 0 17 7 20 40 20 33 0 40 3 40 20 0 13 7 20 20 20 13 0
20 7 20 20 0 13 7 20 20 20 17 0 20 7 20 40 0 33 3 40 20 40 17 0 20 7 20 40
0 33 3 40 20 40 19 0 20 7 20 120 0 113 -1 120 -20 120 -17 0 -20 7 -20 40 0
33 -3 40 -20 40 -13 0 -20 7 -20 20 0 13 -7 20 -20 20 -13 0 -20 7 -20 20 0
13 -7 20 -20 20 -13 0 -20 7 -20 20 0 17 -7 20 -40 20 -33 0 -40 3 -40 20 0
20 -7 20 -600 20 -593 0 -600 0 -600 -20z M7240 7100 c0 -18
-7 -20 -80 -20 -73 0 -80 -2 -80 -20 0 -13 -7 -20 -20 -20 -13 0 -20 -7 -20
-20 0 -17 -7 -20 -40 -20 -33 0 -40 -3 -40 -20 0 -13 -7 -20 -20 -20 -17 0
-20 -7 -20 -40 0 -33 -3 -40 -20 -40 -18 0 -20 -7 -20 -60 0 -53 -2 -60 -20
-60 -13 0 -20 -7 -20 -20 0 -13 7 -20 20 -20 18 0 20 -7 20 -80 0 -73 2 -80
20 -80 17 0 20 -7 20 -40 0 -33 3 -40 20 -40 13 0 20 -7 20 -20 0 -13 7 -20
20 -20 13 0 20 -7 20 -20 0 -13 7 -20 20 -20 13 0 20 -7 20 -20 0 -17 7 -20
40 -20 33 0 40 -3 40 -20 0 -20 7 -20 580 -20 573 0 580 0 580 20 0 17 7 20
40 20 33 0 40 3 40 20 0 17 7 20 40 20 33 0 40 3 40 20 0 13 7 20 20 20 17 0
20 7 20 40 0 33 3 40 20 40 17 0 20 7 20 40 0 33 3 40 20 40 19 0 20 7 20 120
0 113 -1 120 -20 120 -17 0 -20 7 -20 40 0 33 -3 40 -20 40 -13 0 -20 7 -20
20 0 13 -7 20 -20 20 -13 0 -20 7 -20 20 0 13 -7 20 -20 20 -13 0 -20 7 -20
20 0 13 -7 20 -20 20 -13 0 -20 7 -20 20 0 18 -7 20 -80 20 -73 0 -80 2 -80
20 0 20 -7 20 -480 20 -473 0 -480 0 -480 -20z M5960 6060 c0 -18 -7 -20
-60 -20 -53 0 -60 -2 -60 -20 0 -17 -7 -20 -40 -20 -33 0 -40 -3 -40 -20 0
-13 -7 -20 -20 -20 -13 0 -20 -7 -20 -20 0 -13 -7 -20 -20 -20 -18 0 -20 -7
-20 -60 0 -53 -2 -60 -20 -60 -19 0 -20 -7 -20 -100 0 -93 1 -100 20 -100 17
0 20 -7 20 -40 0 -33 3 -40 20 -40 13 0 20 -7 20 -20 0 -13 7 -20 20 -20 13 0
20 -7 20 -20 0 -13 7 -20 20 -20 13 0 20 -7 20 -20 0 -13 7 -20 20 -20 13 0
20 -7 20 -20 0 -20 7 -20 720 -20 713 0 720 0 720 20 0 17 7 20 40 20 33 0 40
3 40 20 0 13 7 20 20 20 17 0 20 7 20 40 0 33 3 40 20 40 13 0 20 7 20 20 0
13 7 20 20 20 19 0 20 7 20 140 0 133 -1 140 -20 140 -17 0 -20 7 -20 40 0 33
-3 40 -20 40 -13 0 -20 7 -20 20 0 13 -7 20 -20 20 -13 0 -20 7 -20 20 0 13
-7 20 -20 20 -13 0 -20 7 -20 20 0 17 -7 20 -40 20 -33 0 -40 3 -40 20 0 20
-7 20 -640 20 -633 0 -640 0 -640 -20z M4920 5020 c0 -18 -7 -20 -60 -20 -53
0 -60 -2 -60 -20 0 -13 -7 -20 -20 -20 -17 0 -20 -7 -20 -40 0 -33 -3 -40 -20
-40 -19 0 -20 -7 -20 -120 0 -113 1 -120 20 -120 13 0 20 -7 20 -20 0 -13 7
-20 20 -20 13 0 20 -7 20 -20 0 -17 7 -20 40 -20 33 0 40 -3 40 -20 0 -20 7
-20 520 -20 513 0 520 0 520 20 0 18 7 20 60 20 53 0 60 2 60 20 0 13 7 20 20
20 13 0 20 7 20 20 0 13 7 20 20 20 13 0 20 7 20 20 0 13 7 20 20 20 18 0 20
7 20 80 0 73 -2 80 -20 80 -17 0 -20 7 -20 40 0 33 -3 40 -20 40 -13 0 -20 7
-20 20 0 13 -7 20 -20 20 -13 0 -20 7 -20 20 0 17 -7 20 -40 20 -33 0 -40 3
-40 20 0 20 -7 20 -520 20 -513 0 -520 0 -520 -20z M5880 4220
c0 -18 -7 -20 -60 -20 -53 0 -60 -2 -60 -20 0 -13 -7 -20 -20 -20 -13 0 -20
-7 -20 -20 0 -13 -7 -20 -20 -20 -17 0 -20 -7 -20 -40 0 -33 -3 -40 -20 -40
-19 0 -20 -7 -20 -100 0 -93 1 -100 20 -100 17 0 20 -7 20 -40 0 -33 3 -40 20
-40 13 0 20 -7 20 -20 0 -13 7 -20 20 -20 13 0 20 -7 20 -20 0 -13 7 -20 20
-20 13 0 20 -7 20 -20 0 -19 7 -20 100 -20 93 0 100 -1 100 -20 0 -19 7 -20
140 -20 133 0 140 1 140 20 0 13 7 20 20 20 13 0 20 -7 20 -20 0 -17 7 -20 40
-20 33 0 40 3 40 20 0 19 7 20 160 20 153 0 160 -1 160 -20 0 -17 7 -20 40
-20 33 0 40 3 40 20 0 18 7 20 60 20 53 0 60 2 60 20 0 13 7 20 20 20 13 0 20
7 20 20 0 13 7 20 20 20 13 0 20 7 20 20 0 13 7 20 20 20 19 0 20 7 20 160 0
153 -1 160 -20 160 -13 0 -20 7 -20 20 0 13 -7 20 -20 20 -13 0 -20 7 -20 20
0 13 -7 20 -20 20 -13 0 -20 7 -20 20 0 17 -7 20 -40 20 -33 0 -40 3 -40 20 0
20 -7 20 -480 20 -473 0 -480 0 -480 -20z M6640 3340 c0 -17 -7 -20 -40 -20 -33 0 -40 -3
-40 -20 0 -13 -7 -20 -20 -20 -13 0 -20 -7 -20 -20 0 -13 -7 -20 -20 -20 -13
0 -20 -7 -20 -20 0 -20 -7 -20 -320 -20 -313 0 -320 0 -320 -20 0 -17 -7 -20
-40 -20 -33 0 -40 -3 -40 -20 0 -13 -7 -20 -20 -20 -17 0 -20 -7 -20 -40 0
-33 -3 -40 -20 -40 -18 0 -20 -7 -20 -80 0 -73 2 -80 20 -80 17 0 20 -7 20
-40 0 -33 3 -40 20 -40 13 0 20 -7 20 -20 0 -20 7 -20 360 -20 353 0 360 0
360 -20 0 -13 7 -20 20 -20 13 0 20 -7 20 -20 0 -13 7 -20 20 -20 13 0 20 -7
20 -20 0 -17 7 -20 40 -20 33 0 40 -3 40 -20 0 -20 7 -20 460 -20 453 0 460 0
460 20 0 13 7 20 20 20 13 0 20 7 20 20 0 17 7 20 40 20 l40 0 0 40 c0 33 3
40 20 40 13 0 20 7 20 20 0 13 7 20 20 20 18 0 20 7 20 60 0 53 2 60 20 60 17
0 20 7 20 40 0 33 -3 40 -20 40 -18 0 -20 7 -20 60 0 53 -2 60 -20 60 -17 0
-20 7 -20 40 0 33 -3 40 -20 40 -13 0 -20 7 -20 20 0 13 -7 20 -20 20 -13 0
-20 7 -20 20 0 13 -7 20 -20 20 -13 0 -20 7 -20 20 0 17 -7 20 -40 20 -33 0
-40 3 -40 20 0 20 -7 20 -440 20 -433 0 -440 0 -440 -20z M6640 2340 c0 -17 -7 -20 -40 -20 -33 0 -40 -3
-40 -20 0 -13 -7 -20 -20 -20 -13 0 -20 -7 -20 -20 0 -13 -7 -20 -20 -20 -13
0 -20 -7 -20 -20 0 -13 -7 -20 -20 -20 -13 0 -20 -7 -20 -20 0 -19 -7 -20
-200 -20 -193 0 -200 1 -200 20 0 13 -7 20 -20 20 -13 0 -20 -7 -20 -20 0 -19
-7 -20 -120 -20 -113 0 -120 -1 -120 -20 0 -13 -7 -20 -20 -20 -13 0 -20 -7
-20 -20 0 -13 -7 -20 -20 -20 -19 0 -20 -7 -20 -120 0 -113 1 -120 20 -120 13
0 20 -7 20 -20 0 -13 7 -20 20 -20 13 0 20 -7 20 -20 0 -20 7 -20 360 -20 353
0 360 0 360 -20 0 -13 7 -20 20 -20 13 0 20 -7 20 -20 0 -13 7 -20 20 -20 13
0 20 -7 20 -20 0 -17 7 -20 40 -20 33 0 40 -3 40 -20 0 -19 7 -20 180 -20 173
0 180 -1 180 -20 0 -20 7 -20 340 -20 333 0 340 0 340 20 0 18 7 20 60 20 53
0 60 2 60 20 0 13 7 20 20 20 13 0 20 7 20 20 0 13 7 20 20 20 13 0 20 7 20
20 0 13 7 20 20 20 13 0 20 7 20 20 0 13 7 20 20 20 18 0 20 7 20 60 0 53 2
60 20 60 19 0 20 7 20 100 0 93 -1 100 -20 100 -17 0 -20 7 -20 40 0 33 -3 40
-20 40 -17 0 -20 7 -20 40 0 33 -3 40 -20 40 -13 0 -20 7 -20 20 0 17 -7 20
-40 20 -33 0 -40 3 -40 20 0 17 -7 20 -40 20 -33 0 -40 3 -40 20 0 20 -7 20
-540 20 -533 0 -540 0 -540 -20z M6720 1340 c0 -18 -7 -20 -60 -20 -53 0 -60 -2 -60 -20 0
-13 -7 -20 -20 -20 -13 0 -20 -7 -20 -20 0 -17 -7 -20 -40 -20 -33 0 -40 -3
-40 -20 0 -13 -7 -20 -20 -20 -13 0 -20 -7 -20 -20 0 -20 -7 -20 -340 -20
-333 0 -340 0 -340 -20 0 -13 -7 -20 -20 -20 -13 0 -20 -7 -20 -20 0 -13 -7
-20 -20 -20 -19 0 -20 -7 -20 -120 0 -113 1 -120 20 -120 13 0 20 -7 20 -20 0
-13 7 -20 20 -20 13 0 20 -7 20 -20 0 -17 7 -20 40 -20 33 0 40 -3 40 -20 0
-20 7 -20 340 -20 333 0 340 0 340 -20 0 -13 7 -20 20 -20 13 0 20 -7 20 -20
0 -17 7 -20 40 -20 33 0 40 -3 40 -20 0 -20 7 -20 420 -20 413 0 420 0 420 20
0 17 7 20 40 20 33 0 40 3 40 20 0 13 7 20 20 20 13 0 20 7 20 20 0 13 7 20
20 20 13 0 20 7 20 20 0 13 7 20 20 20 17 0 20 7 20 40 0 33 3 40 20 40 19 0
20 7 20 140 0 133 -1 140 -20 140 -17 0 -20 7 -20 40 0 33 -3 40 -20 40 -13 0
-20 7 -20 20 0 13 -7 20 -20 20 -13 0 -20 7 -20 20 0 17 -7 20 -40 20 -33 0
-40 3 -40 20 0 18 -7 20 -60 20 -53 0 -60 2 -60 20 0 20 -7 20 -340 20 -333 0
-340 0 -340 -20z"/>

</g>
</svg>